<svg xmlns="http://www.w3.org/2000/svg" width="16" height="16" viewBox="0 0 16 16">
  <path id="call_2_" data-name="call (2)" d="M301.8,7175.6l-.041.123Zm-.085.258.045-.135-.046.138-.083.254.083-.254c-.495,1.5-2.429,2.249-3.811,2.125a12.155,12.155,0,0,1-5.5-2.274,18.15,18.15,0,0,1-5.691-6.792,5.692,5.692,0,0,1,.235-5.907,2.251,2.251,0,0,1,1.8-1.011c1.094-.053,1.249.573,1.625,1.551.281.73.655,1.476.864,2.233.391,1.415-.976,1.471-1.149,2.627-.109.729.774,1.706,1.174,2.226a10.772,10.772,0,0,0,2.781,2.563c.608.382,1.589,1.072,2.284.691,1.07-.585.969-2.393,2.467-1.781a24.636,24.636,0,0,1,2.267,1.17c1.143.616,1.09,1.253.655,2.576Z" transform="translate(-286 -7162)" fill="#272727" fill-rule="evenodd"/>
</svg>
